<svg width="24" height="24" viewBox="0 0 24 24" fill="none" xmlns="http://www.w3.org/2000/svg">
<g clip-path="url(#clip0_3269_10415)">
<path fill-rule="evenodd" clip-rule="evenodd" d="M12 24C18.6274 24 24 18.6274 24 12C24 5.37258 18.6274 0 12 0C5.37258 0 0 5.37258 0 12C0 18.6274 5.37258 24 12 24ZM10.6931 16.8326C10.7012 17.526 11.2051 18.0063 11.9164 17.9999C12.6002 17.9935 13.0968 17.4836 13.0879 16.7965C13.079 16.1408 12.5452 15.6272 11.8824 15.6372C11.2026 15.648 10.6854 16.1676 10.6931 16.8326ZM9.15194 7.02595C9.9947 6.29566 10.9992 5.99761 12.3378 6.00001C13.0673 6.00923 13.9659 6.21954 14.7577 6.794C16.116 7.78027 16.5876 9.82773 15.0027 11.2747C14.7533 11.5025 14.5052 11.7317 14.2572 11.9609C13.9841 12.2133 13.711 12.4656 13.4361 12.716C13.1183 13.0057 12.9189 13.3558 12.8388 13.776C12.8162 13.8939 12.7844 14.01 12.7525 14.1262C12.7439 14.1577 12.7352 14.1892 12.7268 14.2207C12.6043 14.6794 12.2658 14.929 11.7943 14.9097C11.3029 14.8901 10.9357 14.6093 10.8678 14.1514C10.7323 13.2364 11.0109 12.4424 11.6483 11.7734C11.9682 11.4375 12.3154 11.1301 12.6627 10.8227C12.8119 10.6907 12.9611 10.5586 13.1081 10.4242C13.2622 10.2836 13.4005 10.1314 13.5251 9.96474C14.1074 9.18597 13.7228 8.09514 12.7547 7.77346C12.2249 7.5976 11.6826 7.61923 11.1638 7.84958C10.7792 8.02063 10.5718 8.35754 10.3817 8.70566C10.2711 8.90771 10.1916 9.12268 10.1121 9.33763C10.0832 9.41588 10.0543 9.49413 10.0238 9.57175C9.78765 10.1734 9.28701 10.4266 8.70953 10.2403C8.29422 10.1065 7.9796 9.68432 8.00103 9.25327C8.04673 8.34231 8.47377 7.61322 9.15194 7.02595Z" fill="#245DD8"/>
</g>
<defs>
<clipPath id="clip0_3269_10415">
<rect width="24" height="24" fill="white"/>
</clipPath>
</defs>
</svg>
