<svg width="24" height="24" viewBox="0 0 24 24" fill="none" xmlns="http://www.w3.org/2000/svg">
<g clip-path="url(#clip0_3269_6955)">
<path fill-rule="evenodd" clip-rule="evenodd" d="M24 12C24 18.6274 18.6274 24 12 24C5.37258 24 0 18.6274 0 12C0 5.37258 5.37258 0 12 0C18.6274 0 24 5.37258 24 12ZM12.8947 16.6326C13.4678 16.8744 14.0224 17 14.5489 17C14.9171 17 15.2665 16.9302 15.5881 16.8C15.9236 16.6651 16.2125 16.4558 16.4781 16.1628C16.6319 15.9953 16.753 15.814 16.8509 15.6047C16.9487 15.3953 17 15.1721 17 14.9488C17 14.786 16.9674 14.6233 16.8975 14.4465C16.8229 14.2698 16.6971 14.1209 16.5247 14.0047L14.9776 12.907C14.8378 12.8093 14.7074 12.7395 14.5862 12.6884C14.26 12.5535 13.9338 12.5814 13.6775 12.7395C13.5424 12.8093 13.4026 12.9163 13.2582 13.0605L12.9434 13.3721H12.9273C12.8248 13.3209 12.6524 13.2093 12.3868 12.986C12.1724 12.8093 11.9441 12.5953 11.6692 12.3256C11.4548 12.107 11.2404 11.8698 11.0121 11.6093C10.7978 11.3581 10.6859 11.1907 10.63 11.093C10.6253 11.0837 10.6207 11.0744 10.616 11.0605L10.9329 10.7302C11.068 10.5953 11.1752 10.4605 11.2451 10.3349C11.343 10.1721 11.3942 10 11.3942 9.82326C11.3942 9.68837 11.3616 9.54884 11.301 9.4093C11.2498 9.27907 11.1752 9.14884 11.0774 9.01395L9.99627 7.49302C9.88444 7.32558 9.73066 7.2 9.54893 7.11628C9.39049 7.04186 9.2041 7 9.02237 7C8.58434 7 8.17428 7.17674 7.81547 7.53023C7.53122 7.79535 7.32153 8.10233 7.19105 8.43256C7.06524 8.75349 7 9.09767 7 9.46047C7 9.98605 7.12116 10.5442 7.36347 11.1209C7.5918 11.6605 7.91333 12.2186 8.31407 12.7767C8.71016 13.3163 9.1575 13.8419 9.65144 14.3395C10.15 14.8279 10.6766 15.2744 11.2218 15.6744C11.7717 16.0698 12.3355 16.3953 12.8947 16.6326Z" fill="#245DD8"/>
</g>
<defs>
<clipPath id="clip0_3269_6955">
<rect width="24" height="24" fill="white"/>
</clipPath>
</defs>
</svg>
