<svg width="16" height="16" viewBox="0 0 16 16" fill="none" xmlns="http://www.w3.org/2000/svg">
<path d="M8.00002 0.666504C3.93335 0.666504 0.666687 3.93317 0.666687 7.99984C0.666687 12.0665 3.93335 15.3332 8.00002 15.3332C12.0667 15.3332 15.3334 12.0665 15.3334 7.99984C15.3334 3.93317 12.0667 0.666504 8.00002 0.666504ZM9.86669 5.33317C10.4 5.33317 10.8 5.73317 10.8 6.2665C10.8 6.79984 10.4 7.19984 9.86669 7.19984C9.33335 7.19984 8.93335 6.79984 8.93335 6.2665C8.93335 5.73317 9.40002 5.33317 9.86669 5.33317ZM6.13335 5.33317C6.66669 5.33317 7.00002 5.73317 7.00002 6.2665C7.00002 6.79984 6.60002 7.13317 6.06669 7.13317C5.53335 7.13317 5.20002 6.6665 5.20002 6.19984C5.26669 5.6665 5.66669 5.2665 6.13335 5.33317ZM11 9.2665C11 9.53317 10.8667 9.73317 10.7334 9.99984C10.1334 10.9332 9.06669 11.8665 8.00002 11.8665C6.86669 11.8665 5.86669 10.8665 5.26669 9.99984C5.13335 9.79984 5.00002 9.53317 5.00002 9.33317C5.00002 9.13317 5.06669 8.93317 5.26669 8.79984C5.26669 8.6665 5.33335 8.6665 5.33335 8.59984C5.40002 8.53317 5.53335 8.53317 5.60002 8.53317H10.3334C10.4667 8.53317 10.5334 8.53317 10.6 8.59984C10.6 8.59984 10.6667 8.59984 10.7334 8.6665L10.8 8.73317C10.9334 8.8665 11 9.0665 11 9.2665C11 9.19984 11 9.19984 11 9.2665Z" fill="#30B502"/>
<path opacity="0.16" d="M7.06668 6.26634C7.06668 5.73301 6.66668 5.33301 6.13335 5.33301C5.60001 5.33301 5.20001 5.73301 5.20001 6.19967C5.20001 6.73301 5.60001 7.13301 6.06668 7.13301C6.53335 7.13301 7.00001 6.73301 7.06668 6.26634Z" fill="#30B502"/>
<path opacity="0.16" d="M9.86668 7.13301C10.4 7.13301 10.8 6.73301 10.8 6.19967C10.8 5.66634 10.4 5.33301 9.86668 5.33301C9.33335 5.33301 8.93335 5.73301 8.93335 6.26634C8.93335 6.79967 9.40002 7.13301 9.86668 7.13301Z" fill="#30B502"/>
<path opacity="0.08" d="M11 9.26628C11 9.19961 11 9.19961 11 9.26628C11 9.06628 10.9334 8.93294 10.8 8.79961L10.7333 8.73294C10.6667 8.66628 10.6667 8.66628 10.6 8.66628C10.5333 8.59961 10.4 8.59961 10.3333 8.59961H5.60002C5.53335 8.59961 5.46668 8.59961 5.33335 8.66628C5.33335 8.66628 5.26668 8.66628 5.20002 8.73294C5.00002 8.86628 4.93335 9.06628 4.93335 9.26628C4.93335 9.46628 5.06668 9.73294 5.20002 9.93294C5.80002 10.8663 6.86668 11.7996 7.93335 11.7996C9.00002 11.7996 10.0667 10.8663 10.6667 9.93294C10.8667 9.73294 11 9.46628 11 9.26628Z" fill="#30B502"/>
</svg>
