<svg width="24" height="24" viewBox="0 0 24 24" fill="none" xmlns="http://www.w3.org/2000/svg">
<path fill-rule="evenodd" clip-rule="evenodd" d="M20.5126 4.77344C19.4802 3.65794 18.0392 3.01705 16.5253 3H7.45618C4.28665 3 2 5.56151 2 8.85897V15.141C2 18.4385 4.28665 21 7.45618 21H16.5168C18.0392 20.9829 19.4802 20.3421 20.5126 19.2266C21.5449 18.111 22.0786 16.6183 21.9893 15.0959L21.9906 8.85897C22.0786 7.38171 21.5449 5.88895 20.5126 4.77344ZM17.9882 9.63551C18.24 9.36261 18.2621 8.93792 18.024 8.63837C17.7622 8.30886 17.2847 8.25555 16.9576 8.5193L12.8583 11.8242L12.7408 11.9068C12.2575 12.2095 11.6228 12.1816 11.1598 11.8181L7.03057 8.51731L6.93763 8.4536C6.61736 8.26727 6.20141 8.34031 5.96461 8.64086C5.70412 8.97146 5.75904 9.45216 6.08726 9.71453L10.2217 13.0195L10.383 13.1375C11.4231 13.8459 12.8013 13.8067 13.7988 13.0236L17.9058 9.71255L17.9882 9.63551Z" fill="#1C1C1E" fill-opacity="0.54"/>
</svg>
