<svg width="16" height="16" viewBox="0 0 16 16" fill="none" xmlns="http://www.w3.org/2000/svg">
<path d="M8.00002 0.666748C3.93335 0.666748 0.666687 3.93341 0.666687 8.00008C0.666687 12.0667 3.93335 15.3334 8.00002 15.3334C12.0667 15.3334 15.3334 12.0667 15.3334 8.00008C15.3334 3.93341 12.0667 0.666748 8.00002 0.666748ZM9.86669 5.33341C10.4 5.33341 10.8 5.73341 10.8 6.26675C10.8 6.80008 10.4 7.20008 9.86669 7.20008C9.33335 7.20008 8.93335 6.80008 8.93335 6.26675C8.93335 5.73341 9.40002 5.33341 9.86669 5.33341ZM6.13335 5.33341C6.66669 5.33341 7.00002 5.73341 7.00002 6.26675C7.00002 6.80008 6.60002 7.13341 6.06669 7.13341C5.53335 7.13341 5.20002 6.66675 5.20002 6.20008C5.26669 5.66675 5.66669 5.26675 6.13335 5.33341ZM11 9.26675C11 9.53341 10.8667 9.73341 10.7334 10.0001C10.1334 10.9334 9.06669 11.8667 8.00002 11.8667C6.86669 11.8667 5.86669 10.8667 5.26669 10.0001C5.13335 9.80008 5.00002 9.53341 5.00002 9.33341C5.00002 9.13341 5.06669 8.93341 5.26669 8.80008C5.26669 8.66675 5.33335 8.66675 5.33335 8.60008C5.40002 8.53341 5.53335 8.53341 5.60002 8.53341H10.3334C10.4667 8.53341 10.5334 8.53341 10.6 8.60008C10.6 8.60008 10.6667 8.60008 10.7334 8.66675L10.8 8.73341C10.9334 8.86675 11 9.06675 11 9.26675C11 9.20008 11 9.20008 11 9.26675Z" fill="#02FA83"/>
<path opacity="0.16" d="M7.06668 6.26683C7.06668 5.7335 6.66668 5.3335 6.13335 5.3335C5.60001 5.3335 5.20001 5.7335 5.20001 6.20016C5.20001 6.7335 5.60001 7.1335 6.06668 7.1335C6.53335 7.1335 7.00001 6.7335 7.06668 6.26683Z" fill="#02FA83"/>
<path opacity="0.16" d="M9.86668 7.1335C10.4 7.1335 10.8 6.7335 10.8 6.20016C10.8 5.66683 10.4 5.3335 9.86668 5.3335C9.33335 5.3335 8.93335 5.7335 8.93335 6.26683C8.93335 6.80016 9.40002 7.1335 9.86668 7.1335Z" fill="#02FA83"/>
<path opacity="0.08" d="M11 9.26676C11 9.2001 11 9.2001 11 9.26676C11 9.06676 10.9334 8.93343 10.8 8.8001L10.7333 8.73343C10.6667 8.66676 10.6667 8.66676 10.6 8.66676C10.5333 8.6001 10.4 8.6001 10.3333 8.6001H5.60002C5.53335 8.6001 5.46668 8.6001 5.33335 8.66676C5.33335 8.66676 5.26668 8.66676 5.20002 8.73343C5.00002 8.86676 4.93335 9.06676 4.93335 9.26676C4.93335 9.46676 5.06668 9.73343 5.20002 9.93343C5.80002 10.8668 6.86668 11.8001 7.93335 11.8001C9.00002 11.8001 10.0667 10.8668 10.6667 9.93343C10.8667 9.73343 11 9.46676 11 9.26676Z" fill="#02FA83"/>
</svg>
