<svg width="192" height="64" viewBox="0 0 192 64" fill="none" xmlns="http://www.w3.org/2000/svg">
<path d="M22.03 1.38941H34.2158L56.2891 62.1764H45.0573L41.1543 51.4084H15.1348L11.2318 62.1764H6.10352e-05L22.03 1.38941ZM18.9943 40.8141H37.2514L28.1012 15.7612L18.9943 40.8141Z" fill="#19185E"/>
<path d="M60.0781 18.7571H70.6594V62.1764H60.0781V18.7571ZM65.4555 13.156C63.8944 13.156 62.5789 12.6495 61.5092 11.6364C60.4395 10.5943 59.9047 9.29172 59.9047 7.72863C59.9047 6.19448 60.4395 4.90638 61.5092 3.86431C62.5789 2.82225 63.8799 2.30122 65.4122 2.30122C66.9444 2.30122 68.2309 2.82225 69.2717 3.86431C70.3414 4.90638 70.8763 6.19448 70.8763 7.72863C70.8763 9.29172 70.3559 10.5943 69.3151 11.6364C68.2743 12.6495 66.9878 13.156 65.4555 13.156Z" fill="#19185E"/>
<path d="M78.3176 62.1764L78.2742 18.7571H88.8555L88.8989 22.6214C90.3733 21.0583 92.1369 19.8281 94.1895 18.9308C96.2422 18.0045 98.4538 17.5414 100.825 17.5414C102.415 17.5414 104.005 17.773 105.595 18.2361L101.432 28.9172C100.333 28.483 99.2344 28.2659 98.1358 28.2659C96.4301 28.2659 94.8689 28.6857 93.4523 29.5251C92.0646 30.3356 90.9515 31.45 90.1131 32.8684C89.3036 34.2578 88.8989 35.8064 88.8989 37.5142V62.1764H78.3176Z" fill="#19185E"/>
<path d="M168.206 64L161.441 57.3134C159.07 59.1081 156.425 60.512 153.505 61.5251C150.614 62.5382 147.564 63.0448 144.354 63.0448C140.249 63.0448 136.39 62.2343 132.776 60.6133C129.162 58.9634 125.982 56.7056 123.235 53.8399C120.489 50.9453 118.335 47.5875 116.774 43.7666C115.213 39.9457 114.432 35.8643 114.432 31.5224C114.432 27.1805 115.213 23.1135 116.774 19.3216C118.335 15.5007 120.489 12.1429 123.235 9.2483C125.982 6.35369 129.162 4.09588 132.776 2.47489C136.39 0.824964 140.249 0 144.354 0C148.489 0 152.363 0.824964 155.977 2.47489C159.59 4.09588 162.771 6.35369 165.517 9.2483C168.264 12.1429 170.403 15.5007 171.935 19.3216C173.496 23.1135 174.277 27.1805 174.277 31.5224C174.277 34.9091 173.785 38.1366 172.803 41.2049C171.82 44.2442 170.475 47.052 168.769 49.6282L175.665 56.5319L168.206 64ZM144.354 52.4505C146.031 52.4505 147.679 52.2044 149.298 51.7124C150.917 51.1913 152.406 50.4677 153.765 49.5414L148.257 44.0271L155.716 36.5156L160.877 41.7259C161.802 40.2207 162.496 38.5997 162.958 36.863C163.45 35.1262 163.696 33.346 163.696 31.5224C163.696 28.6278 163.19 25.9213 162.178 23.403C161.166 20.8847 159.764 18.6703 157.971 16.7598C156.208 14.8204 154.155 13.3152 151.813 12.2442C149.501 11.1443 147.014 10.5943 144.354 10.5943C141.695 10.5943 139.194 11.1443 136.852 12.2442C134.51 13.3442 132.443 14.8639 130.651 16.8033C128.887 18.7137 127.5 20.9281 126.488 23.4464C125.505 25.9647 125.013 28.6567 125.013 31.5224C125.013 34.3881 125.519 37.0945 126.531 39.6418C127.543 42.1601 128.931 44.389 130.694 46.3284C132.487 48.2388 134.539 49.744 136.852 50.844C139.194 51.915 141.695 52.4505 144.354 52.4505Z" fill="#19185E"/>
<path d="M181.419 62.1764V1.38941H192V62.1764H181.419Z" fill="#19185E"/>
</svg>
