<svg width="56" height="56" viewBox="0 0 56 56" fill="none" xmlns="http://www.w3.org/2000/svg">
<path d="M40.3361 26.154H40.4542C40.572 26.1412 40.6859 26.1046 40.7892 26.0464C40.8924 25.9883 40.9828 25.9097 41.0548 25.8156C41.1268 25.7214 41.1789 25.6136 41.208 25.4987C41.2371 25.3838 41.2426 25.2641 41.2242 25.147C40.8029 21.9423 39.2317 19.0002 36.8034 16.8689C34.3751 14.7376 31.2554 13.5625 28.0254 13.5625C24.7955 13.5625 21.6758 14.7376 19.2475 16.8689C16.8192 19.0002 15.248 21.9423 14.8267 25.147C14.8112 25.2637 14.8188 25.3823 14.8491 25.4961C14.8794 25.6099 14.9318 25.7166 15.0033 25.8101C15.0748 25.9036 15.164 25.9821 15.2658 26.0411C15.3676 26.1001 15.4801 26.1384 15.5967 26.154C15.7133 26.1695 15.8319 26.1619 15.9455 26.1315C16.0592 26.1012 16.1658 26.0488 16.2593 25.9772C16.3527 25.9057 16.4311 25.8164 16.4901 25.7145C16.5491 25.6126 16.5874 25.5001 16.6029 25.3834C16.9638 22.6071 18.322 20.0572 20.4239 18.2096C22.5258 16.362 25.2278 15.3431 28.0254 15.3431C30.8231 15.3431 33.5251 16.362 35.627 18.2096C37.7289 20.0572 39.0871 22.6071 39.448 25.3834C39.4794 25.5969 39.5863 25.7921 39.7493 25.9335C39.9122 26.0749 40.1204 26.1531 40.3361 26.154Z" fill="#00CD85"/>
<path fill-rule="evenodd" clip-rule="evenodd" d="M39.375 26.25C37.5353 26.25 35.8859 27.06 34.7618 28.3457C33.8198 29.4231 33.25 30.8314 33.25 32.375C33.25 32.8582 32.8582 33.25 32.375 33.25C31.8918 33.25 31.5 32.8582 31.5 32.375C31.5 30.3919 32.2342 28.578 33.4444 27.1938C34.8866 25.5442 37.0094 24.5 39.375 24.5C43.7242 24.5 47.25 28.0258 47.25 32.375C47.25 36.7242 43.7242 40.25 39.375 40.25C38.8918 40.25 38.5 39.8582 38.5 39.375C38.5 38.8918 38.8918 38.5 39.375 38.5C42.7577 38.5 45.5 35.7577 45.5 32.375C45.5 28.9923 42.7577 26.25 39.375 26.25Z" fill="#00CD85"/>
<path d="M16.7648 40.3738C18.7487 40.3697 20.6597 39.6251 22.1239 38.2855C22.2979 38.1252 22.4012 37.9024 22.4111 37.6659C22.4209 37.4295 22.3365 37.1988 22.1764 37.0246C22.0163 36.8504 21.7936 36.747 21.5573 36.7372C21.321 36.7273 21.0905 36.8118 20.9165 36.972C19.7835 38.0123 18.3024 38.5902 16.7648 38.5919C15.1973 38.5748 13.6934 37.9693 12.5507 36.8955C11.408 35.8216 10.7098 34.3575 10.5943 32.7931C10.4788 31.2286 10.9544 29.6778 11.9269 28.4475C12.8995 27.2172 14.2982 26.3971 15.8461 26.1496C16.1499 26.1004 16.457 26.074 16.7648 26.0708C17.0015 26.0708 17.2285 25.9767 17.3959 25.8092C17.5632 25.6417 17.6573 25.4145 17.6573 25.1777C17.6573 24.9408 17.5632 24.7136 17.3959 24.5461C17.2285 24.3786 17.0015 24.2845 16.7648 24.2845C16.3678 24.2869 15.9715 24.3191 15.5792 24.3809C13.5772 24.6863 11.7641 25.7364 10.5022 27.3215C9.24021 28.9065 8.62238 30.9097 8.77212 32.9308C8.92186 34.9518 9.82815 36.842 11.3099 38.2234C12.7916 39.6049 14.7397 40.3759 16.7648 40.3825V40.3738Z" fill="#00CD85"/>
<path d="M33.3582 44.1871C33.6243 44.1795 33.8788 44.0768 34.0759 43.8978C34.273 43.7187 34.3996 43.4751 34.4329 43.2108C34.4662 42.9465 34.4039 42.679 34.2574 42.4566C34.1108 42.2342 33.8897 42.0716 33.6338 41.9981C31.6472 41.4814 29.8356 40.4405 28.3882 38.9841C26.9407 37.5277 25.9105 35.7091 25.405 33.7182C24.8995 31.7274 24.9373 29.6372 25.5144 27.666C26.0915 25.6947 27.1868 23.9146 28.6859 22.5116C28.8007 22.413 28.8943 22.2922 28.9612 22.1564C29.028 22.0206 29.0667 21.8727 29.0749 21.7215C29.083 21.5704 29.0605 21.4191 29.0087 21.2769C28.9568 21.1348 28.8767 21.0045 28.7732 20.8942C28.6697 20.7838 28.545 20.6955 28.4065 20.6347C28.268 20.5739 28.1186 20.5418 27.9673 20.5403C27.8161 20.5389 27.6661 20.5681 27.5265 20.6262C27.3868 20.6844 27.2604 20.7702 27.1548 20.8785C24.9489 22.9455 23.4865 25.6833 22.9943 28.667C22.8754 29.4024 22.8155 30.1461 22.815 30.8911C22.8071 33.9304 23.8128 36.8854 25.6726 39.2882C27.5324 41.691 30.14 43.4042 33.0826 44.1565C33.1726 44.1796 33.2653 44.1899 33.3582 44.1871Z" fill="#19185E"/>
<path d="M35.7469 40.5972C35.8995 40.6067 36.0525 40.5849 36.1964 40.533C36.3404 40.4811 36.4721 40.4003 36.5836 40.2955C36.6951 40.1907 36.7839 40.0641 36.8447 39.9236C36.9054 39.7831 36.9368 39.6317 36.9368 39.4786C36.9368 39.3255 36.9054 39.1741 36.8447 39.0336C36.7839 38.8931 36.6951 38.7665 36.5836 38.6617C36.4721 38.5569 36.3404 38.4761 36.1964 38.4242C36.0525 38.3723 35.8995 38.3505 35.7469 38.36C34.6223 38.3462 33.5153 38.0784 32.5085 37.5768C31.5017 37.0752 30.6211 36.3526 29.9322 35.4629C29.2434 34.5732 28.7641 33.5394 28.5301 32.4385C28.2962 31.3376 28.3135 30.1981 28.581 29.1049C28.6163 28.9611 28.623 28.8119 28.6007 28.6655C28.5784 28.5192 28.5275 28.3787 28.4509 28.2521C28.3743 28.1254 28.2735 28.0152 28.1544 27.9275C28.0352 27.8398 27.8999 27.7765 27.7563 27.7411C27.6127 27.7058 27.4635 27.6991 27.3173 27.7214C27.1711 27.7437 27.0307 27.7947 26.9042 27.8713C26.7776 27.9479 26.6674 28.0488 26.5798 28.168C26.4922 28.2873 26.4289 28.4227 26.3936 28.5664C26.041 29.9895 26.0154 31.4741 26.3189 32.9085C26.6223 34.343 27.2469 35.6899 28.1455 36.8479C29.0441 38.0059 30.1935 38.945 31.507 39.5944C32.8206 40.2438 34.2643 40.5866 35.7294 40.5972H35.7469Z" fill="#19185E"/>
<path d="M25.1294 44.0952C25.35 44.0956 25.5657 44.0304 25.7494 43.9081C25.933 43.7857 26.0762 43.6116 26.161 43.4077C26.2457 43.2039 26.2682 42.9795 26.2255 42.7629C26.1828 42.5463 26.0769 42.3472 25.9212 42.1908C24.4367 40.7007 23.2607 38.9321 22.4604 36.9863C21.6601 35.0406 21.2514 32.9559 21.2577 30.8517C21.259 30.2212 21.2955 29.5913 21.367 28.9648C21.5018 27.8261 21.7569 26.7048 22.1283 25.62C22.2126 25.3422 22.1858 25.0425 22.0537 24.784C21.9216 24.5255 21.6944 24.3284 21.42 24.2342C21.1455 24.14 20.8453 24.1561 20.5825 24.279C20.3196 24.4019 20.1147 24.6221 20.0109 24.8933C18.9067 28.1296 18.7262 31.6099 19.4898 34.9432C20.2533 38.2765 21.9306 41.3307 24.3332 43.7625C24.4374 43.8677 24.5615 43.9513 24.6981 44.0084C24.8347 44.0655 24.9813 44.095 25.1294 44.0952Z" fill="#19185E"/>
</svg>
