<svg width="9" height="7" viewBox="0 0 9 7" fill="none" xmlns="http://www.w3.org/2000/svg">
<path d="M2.02344 2.82812C1.35156 2.82812 0.851562 2.32031 0.851562 1.65625V1.65234C0.855469 0.988281 1.35547 0.484375 2.02344 0.484375C2.68359 0.484375 3.19531 0.988281 3.19531 1.65234V1.65625C3.19531 2.32031 2.6875 2.82812 2.02344 2.82812ZM2.02344 2.26172C2.36328 2.26172 2.60938 2.00781 2.60938 1.66016V1.65625C2.60938 1.29688 2.35938 1.05078 2.02344 1.05078C1.70312 1.05078 1.4375 1.29688 1.4375 1.65625V1.66016C1.4375 2.00781 1.69922 2.26172 2.02344 2.26172ZM6.41016 6.09375C4.84375 6.09375 3.83594 4.95312 3.83594 3.17969V3.17578C3.83594 1.40234 4.83984 0.269531 6.41016 0.269531C7.58203 0.269531 8.49219 0.980469 8.70703 2.04688L8.71484 2.08594H8.00391L7.97656 2C7.75781 1.31641 7.20312 0.917969 6.41016 0.917969C5.28516 0.917969 4.55859 1.80469 4.55859 3.17578V3.17969C4.55859 4.55078 5.28906 5.44531 6.41016 5.44531C7.19922 5.44531 7.74609 5.05469 7.99219 4.3125L8.00391 4.27734H8.71484L8.70703 4.31641C8.49219 5.39453 7.58984 6.09375 6.41016 6.09375Z" fill="#4B5563"/>
</svg>
