<svg width="4" height="6" viewBox="0 0 4 6" fill="none" xmlns="http://www.w3.org/2000/svg">
<path d="M3.31713 2.14013L2.39997 1.28028V5.62499C2.39997 5.83227 2.22106 6 1.99996 6C1.77887 6 1.59996 5.83227 1.59996 5.62499V1.28028L0.682797 2.14013C0.526538 2.28663 0.273417 2.28663 0.117195 2.14013C-0.039065 1.99364 -0.039065 1.75633 0.117195 1.60987L1.71669 0.11032C1.7537 0.0755153 1.79803 0.0479183 1.84726 0.0288281C1.89613 0.00987911 1.94795 0 2 0C2.05205 0 2.10387 0.00987911 2.15274 0.0288281C2.20197 0.0479183 2.2463 0.0755153 2.28331 0.11032L3.88281 1.60987C4.03906 1.75637 4.03906 1.99367 3.88281 2.14013C3.72651 2.28663 3.47339 2.28663 3.31713 2.14013Z" fill="#56BF30"/>
</svg>
