<svg width="16" height="16" viewBox="0 0 16 16" fill="none" xmlns="http://www.w3.org/2000/svg">
<path d="M7.99999 0.666748C3.93332 0.666748 0.666656 3.93341 0.666656 8.00008C0.666656 12.0667 3.93332 15.3334 7.99999 15.3334C12.0667 15.3334 15.3333 12.0667 15.3333 8.00008C15.3333 3.93341 12.0667 0.666748 7.99999 0.666748ZM9.86666 5.33341C10.4 5.33341 10.8 5.73341 10.8 6.26675C10.8 6.80008 10.4 7.20008 9.86666 7.20008C9.33332 7.20008 8.93332 6.80008 8.93332 6.26675C8.93332 5.73341 9.39999 5.33341 9.86666 5.33341ZM6.13332 5.33341C6.66666 5.33341 6.99999 5.73341 6.99999 6.26675C6.99999 6.80008 6.59999 7.13341 6.06666 7.13341C5.53332 7.13341 5.19999 6.66675 5.19999 6.20008C5.26666 5.66675 5.66666 5.26675 6.13332 5.33341ZM11 9.26675C11 9.53341 10.8667 9.73341 10.7333 10.0001C10.1333 10.9334 9.06666 11.8667 7.99999 11.8667C6.86666 11.8667 5.86666 10.8667 5.26666 10.0001C5.13332 9.80008 4.99999 9.53341 4.99999 9.33341C4.99999 9.13341 5.06666 8.93341 5.26666 8.80008C5.26666 8.66675 5.33332 8.66675 5.33332 8.60008C5.39999 8.53341 5.53332 8.53341 5.59999 8.53341H10.3333C10.4667 8.53341 10.5333 8.53341 10.6 8.60008C10.6 8.60008 10.6667 8.60008 10.7333 8.66675L10.8 8.73341C10.9333 8.86675 11 9.06675 11 9.26675C11 9.20008 11 9.20008 11 9.26675Z" fill="#EC8B1A"/>
<path opacity="0.16" d="M7.06665 6.26683C7.06665 5.7335 6.66665 5.3335 6.13331 5.3335C5.59998 5.3335 5.19998 5.7335 5.19998 6.20016C5.19998 6.7335 5.59998 7.1335 6.06665 7.1335C6.53332 7.1335 6.99998 6.7335 7.06665 6.26683Z" fill="#EC8B1A"/>
<path opacity="0.16" d="M9.86665 7.1335C10.4 7.1335 10.8 6.7335 10.8 6.20016C10.8 5.66683 10.4 5.3335 9.86665 5.3335C9.33332 5.3335 8.93332 5.7335 8.93332 6.26683C8.93332 6.80016 9.39999 7.1335 9.86665 7.1335Z" fill="#EC8B1A"/>
<path opacity="0.08" d="M11 9.26676C11 9.2001 11 9.2001 11 9.26676C11 9.06676 10.9333 8.93343 10.8 8.8001L10.7333 8.73343C10.6667 8.66676 10.6667 8.66676 10.6 8.66676C10.5333 8.6001 10.4 8.6001 10.3333 8.6001H5.59999C5.53332 8.6001 5.46665 8.6001 5.33332 8.66676C5.33332 8.66676 5.26665 8.66676 5.19999 8.73343C4.99999 8.86676 4.93332 9.06676 4.93332 9.26676C4.93332 9.46676 5.06665 9.73343 5.19999 9.93343C5.79999 10.8668 6.86665 11.8001 7.93332 11.8001C8.99999 11.8001 10.0667 10.8668 10.6667 9.93343C10.8667 9.73343 11 9.46676 11 9.26676Z" fill="#EC8B1A"/>
</svg>
