<svg width="16" height="16" viewBox="0 0 16 16" fill="none" xmlns="http://www.w3.org/2000/svg">
<path d="M8.00002 0.666748C3.93335 0.666748 0.666687 3.93341 0.666687 8.00008C0.666687 12.0667 3.93335 15.3334 8.00002 15.3334C12.0667 15.3334 15.3334 12.0667 15.3334 8.00008C15.3334 4.00008 12.0667 0.666748 8.00002 0.666748ZM9.86669 5.33341C10.4 5.33341 10.8 5.73341 10.8 6.26675C10.8 6.80008 10.4 7.20008 9.86669 7.20008C9.33335 7.20008 8.93335 6.80008 8.93335 6.26675C8.93335 5.73341 9.40002 5.33341 9.86669 5.33341ZM6.20002 5.33341C6.66669 5.33341 7.06669 5.80008 7.06669 6.26675C7.06669 6.73341 6.60002 7.13341 6.13336 7.13341C5.66669 7.13341 5.26669 6.66675 5.26669 6.20008C5.26669 5.66675 5.66669 5.26675 6.20002 5.33341ZM9.93335 11.0001H6.13336C5.60002 11.0001 5.20002 10.6001 5.20002 10.0667C5.20002 9.53341 5.60002 9.13341 6.13336 9.13341H9.93335C10.4667 9.13341 10.8667 9.53341 10.8667 10.0667C10.8667 10.6001 10.4 11.0001 9.93335 11.0001Z" fill="#FEB156"/>
<path opacity="0.16" d="M7.06666 6.26683C7.06666 5.80016 6.73333 5.3335 6.2 5.3335C5.73333 5.3335 5.26666 5.66683 5.26666 6.20016C5.26666 6.66683 5.6 7.1335 6.13333 7.1335C6.6 7.20016 6.99999 6.80016 7.06666 6.26683Z" fill="#FEB156"/>
<path opacity="0.16" d="M9.86667 7.13351C10.4 7.13351 10.8 6.73351 10.8 6.20018C10.8 5.66685 10.4 5.26685 9.86667 5.26685C9.33334 5.26685 9 5.73351 9 6.26685C9 6.80018 9.4 7.13351 9.86667 7.13351Z" fill="#FEB156"/>
<path opacity="0.08" d="M6.13335 11H9.93334C10.4667 11 10.8667 10.6 10.8667 10.0666C10.8667 9.5333 10.4667 9.1333 9.93334 9.1333H6.13335C5.66668 9.1333 5.20001 9.5333 5.20001 10.0666C5.20001 10.6 5.60001 11 6.13335 11Z" fill="#FEB156"/>
</svg>
