<svg width="4" height="6" viewBox="0 0 4 6" fill="none" xmlns="http://www.w3.org/2000/svg">
<path d="M3.31713 3.85987L2.39997 4.71972V0.375011C2.39997 0.16773 2.22106 0 1.99996 0C1.77887 0 1.59996 0.16773 1.59996 0.375011V4.71972L0.682797 3.85987C0.526538 3.71337 0.273417 3.71337 0.117195 3.85987C-0.039065 4.00636 -0.039065 4.24367 0.117195 4.39013L1.71669 5.88968C1.7537 5.92448 1.79803 5.95208 1.84726 5.97117C1.89613 5.99012 1.94795 6 2 6C2.05205 6 2.10387 5.99012 2.15274 5.97117C2.20197 5.95208 2.2463 5.92448 2.28331 5.88968L3.88281 4.39013C4.03906 4.24363 4.03906 4.00633 3.88281 3.85987C3.72651 3.71337 3.47339 3.71337 3.31713 3.85987Z" fill="#FF3A2C"/>
</svg>
